<!DOCTYPE svg PUBLIC "-//W3C//DTD SVG 20010904//EN" "http://www.w3.org/TR/2001/REC-SVG-20010904/DTD/svg10.dtd">
<svg xmlns="http://www.w3.org/2000/svg" viewBox="0.0 0.0 256.0 256.0"><g transform="translate(-25.599999999999994,-25.599999999999994) scale(1.2)"><g transform="translate(0.000000,256.000000) scale(0.100000,-0.100000)" fill="#25864b" stroke="none">
<path d="M1035 1921 c-13 -6 0 -9 42 -9 80 0 146 -35 218 -115 60 -66 85 -111 92 -168 5 -36 8 -38 57 -50 43 -10 62 -23 127 -88 94 -95 114 -134 114 -223 0 -38 1 -68 2 -68 1 0 7 24 13 53 14 69 -4 129 -61 203 -58 76 -121 125 -176 139 -46 12 -47 13 -63 72 -9 33 -26 73 -38 90 -41 58 -147 148 -189 161 -45 13 -108 15 -138 3z"/>
<path d="M1000 1881 c-57 -18 -110 -53 -175 -114 l-69 -64 53 -61 54 -62 51 45 c64 58 121 85 160 78 40 -8 103 -74 111 -116 9 -46 -11 -82 -80 -145 -30 -28 -55 -54 -55 -59 0 -5 24 -33 54 -62 l55 -54 53 48 c75 68 107 81 157 67 48 -15 96 -67 105 -116 20 -106 -92 -254 -206 -272 -33 -6 -38 -10 -38 -34 0 -15 -3 -48 -6 -74 l-7 -46 74 0 74 0 13 42 c27 87 100 158 189 184 39 11 53 20 53 34 0 10 9 37 20 61 26 59 26 131 -2 188 -12 25 -54 78 -93 117 -55 56 -80 74 -115 83 -70 18 -70 19 -70 51 0 17 -9 50 -20 74 -26 54 -134 166 -183 189 -43 21 -121 30 -157 18z"/>
<path d="M1651 1134 c0 -11 3 -14 6 -6 3 7 2 16 -1 19 -3 4 -6 -2 -5 -13z"/>
<path d="M1735 992 c-142 -59 -268 -195 -300 -323 l-6 -26 128 -6 c70 -4 154 -7 186 -7 l57 0 0 123 c0 67 3 152 7 190 7 77 2 80 -72 49z"/>
</g>
</g></svg>